<svg width="345" height="72" viewBox="0 0 345 72" fill="none" xmlns="http://www.w3.org/2000/svg">
<path d="M0 5.87755C0 2.63147 2.63147 0 5.87755 0H66.1224C69.3685 0 72 2.63147 72 5.87755V66.1224C72 69.3685 69.3685 72 66.1224 72H5.87755C2.63147 72 0 69.3685 0 66.1224V5.87755Z" fill="#383838"/>
<path d="M30.364 58L21.7441 27.7497H21.4847C21.8883 32.9015 22.0901 36.9042 22.0901 39.7579V58H12V16H27.164L35.9568 45.8194H36.1874L44.8072 16H60V58H49.5351V39.5855C49.5351 38.6279 49.5447 37.565 49.564 36.3967C49.6024 35.2285 49.7369 32.3653 49.9676 27.8071H49.7081L41.2036 58H30.364Z" fill="#EB383C"/>
<path d="M82.7013 46.4657C82.7013 48.8532 83.0892 50.6582 83.8649 51.8807C84.6549 53.1032 85.9334 53.7145 87.7003 53.7145C89.4529 53.7145 90.7098 53.1104 91.4712 51.9023C92.2469 50.6798 92.6347 48.8676 92.6347 46.4657C92.6347 44.0783 92.2469 42.2876 91.4712 41.0939C90.6954 39.9002 89.4241 39.3033 87.6572 39.3033C85.9047 39.3033 84.6406 39.9002 83.8649 41.0939C83.0892 42.2733 82.7013 44.0639 82.7013 46.4657ZM99.3576 46.4657C99.3576 50.3921 98.3233 53.4628 96.2547 55.6777C94.1862 57.8926 91.306 59 87.6141 59C85.3014 59 83.2615 58.4966 81.4946 57.4898C79.7277 56.4687 78.3702 55.0089 77.4221 53.1104C76.474 51.2119 76 48.997 76 46.4657C76 42.525 77.0271 39.4615 79.0813 37.2754C81.1355 35.0893 84.0229 33.9962 87.7434 33.9962C90.0562 33.9962 92.096 34.4996 93.8629 35.5063C95.6298 36.5131 96.9873 37.9585 97.9354 39.8426C98.8835 41.7267 99.3576 43.9344 99.3576 46.4657Z" fill="#383838"/>
<path d="M110.024 46.4657C110.024 48.8532 110.411 50.6582 111.187 51.8807C111.977 53.1032 113.256 53.7145 115.023 53.7145C116.775 53.7145 118.032 53.1104 118.793 51.9023C119.569 50.6798 119.957 48.8676 119.957 46.4657C119.957 44.0783 119.569 42.2876 118.793 41.0939C118.018 39.9002 116.746 39.3033 114.98 39.3033C113.227 39.3033 111.963 39.9002 111.187 41.0939C110.411 42.2733 110.024 44.0639 110.024 46.4657ZM126.68 46.4657C126.68 50.3921 125.646 53.4628 123.577 55.6777C121.508 57.8926 118.628 59 114.936 59C112.624 59 110.584 58.4966 108.817 57.4898C107.05 56.4687 105.693 55.0089 104.744 53.1104C103.796 51.2119 103.322 48.997 103.322 46.4657C103.322 42.525 104.349 39.4615 106.404 37.2754C108.458 35.0893 111.345 33.9962 115.066 33.9962C117.379 33.9962 119.418 34.4996 121.185 35.5063C122.952 36.5131 124.31 37.9585 125.258 39.8426C126.206 41.7267 126.68 43.9344 126.68 46.4657Z" fill="#383838"/>
<path d="M139.738 59C136.908 59 134.681 57.8997 133.058 55.6992C131.449 53.4987 130.645 50.4497 130.645 46.552C130.645 42.5969 131.463 39.519 133.101 37.3185C134.753 35.1036 137.023 33.9962 139.91 33.9962C142.941 33.9962 145.254 35.1755 146.848 37.5343H147.064C146.734 35.7365 146.568 34.1328 146.568 32.7234V25H153.162V58.5685H148.12L146.848 55.4404H146.568C145.074 57.8135 142.797 59 139.738 59ZM142.043 53.7576C143.724 53.7576 144.952 53.2686 145.728 52.2906C146.518 51.3126 146.949 49.6514 147.021 47.3071V46.5952C147.021 44.0063 146.619 42.151 145.814 41.0292C145.024 39.9074 143.731 39.3464 141.936 39.3464C140.47 39.3464 139.328 39.9721 138.51 41.2234C137.705 42.4602 137.303 44.2652 137.303 46.6383C137.303 49.0114 137.712 50.7948 138.531 51.9886C139.35 53.1679 140.521 53.7576 142.043 53.7576Z" fill="#383838"/>
<path d="M181.605 58.5685H175.033V44.481C175.033 42.7407 174.738 41.4391 174.149 40.5761C173.575 39.6988 172.662 39.2602 171.413 39.2602C169.732 39.2602 168.511 39.8786 167.75 41.1155C166.988 42.3524 166.608 44.3875 166.608 47.2208V58.5685H160.036V34.4492H165.056L165.94 37.5343H166.306C166.952 36.4268 167.886 35.5639 169.107 34.9454C170.328 34.3126 171.729 33.9962 173.309 33.9962C176.915 33.9962 179.357 35.1755 180.635 37.5343H181.217C181.863 36.4124 182.811 35.5423 184.061 34.9239C185.325 34.3054 186.747 33.9962 188.328 33.9962C191.057 33.9962 193.118 34.7009 194.512 36.1104C195.919 37.5055 196.623 39.7492 196.623 42.8414V58.5685H190.03V44.481C190.03 42.7407 189.735 41.4391 189.146 40.5761C188.572 39.6988 187.66 39.2602 186.41 39.2602C184.801 39.2602 183.594 39.8354 182.79 40.986C182 42.1366 181.605 43.9632 181.605 46.4657V58.5685Z" fill="#383838"/>
<path d="M218.688 58.5685L217.417 55.2893H217.244C216.138 56.6844 214.996 57.6552 213.818 58.2018C212.655 58.7339 211.132 59 209.25 59C206.937 59 205.113 58.3384 203.777 57.0152C202.456 55.692 201.795 53.808 201.795 51.3629C201.795 48.8029 202.685 46.9188 204.467 45.7107C206.262 44.4882 208.963 43.8122 212.569 43.6827L216.749 43.5533V42.4962C216.749 40.0512 215.499 38.8287 213 38.8287C211.075 38.8287 208.812 39.4112 206.212 40.5761L204.036 36.132C206.808 34.6794 209.882 33.953 213.258 33.953C216.49 33.953 218.968 34.6578 220.692 36.0673C222.416 37.4767 223.278 39.6197 223.278 42.4962V58.5685H218.688ZM216.749 47.3934L214.206 47.4797C212.296 47.5372 210.873 47.8824 209.94 48.5152C209.006 49.1481 208.539 50.1117 208.539 51.4061C208.539 53.2614 209.602 54.1891 211.728 54.1891C213.251 54.1891 214.465 53.7504 215.37 52.8731C216.289 51.9958 216.749 50.8308 216.749 49.3782V47.3934Z" fill="#383838"/>
<path d="M239.848 59C232.349 59 228.6 54.8794 228.6 46.6383C228.6 42.5393 229.62 39.4112 231.66 37.2538C233.7 35.0821 236.623 33.9962 240.43 33.9962C243.216 33.9962 245.716 34.5427 247.928 35.6358L245.989 40.7272C244.955 40.3101 243.992 39.9721 243.101 39.7132C242.211 39.4399 241.32 39.3033 240.43 39.3033C237.011 39.3033 235.301 41.7339 235.301 46.5952C235.301 51.3126 237.011 53.6713 240.43 53.6713C241.694 53.6713 242.864 53.5059 243.942 53.1751C245.019 52.8299 246.097 52.2978 247.174 51.5787V57.2094C246.111 57.8854 245.034 58.3528 243.942 58.6117C242.864 58.8706 241.5 59 239.848 59Z" fill="#383838"/>
<path d="M275.013 58.5685H268.441V44.481C268.441 41.0004 267.149 39.2602 264.563 39.2602C262.724 39.2602 261.395 39.8858 260.577 41.1371C259.758 42.3883 259.348 44.4162 259.348 47.2208V58.5685H252.776V25H259.348V31.8388C259.348 32.371 259.298 33.6223 259.198 35.5926L259.047 37.5343H259.391C260.857 35.1755 263.184 33.9962 266.373 33.9962C269.203 33.9962 271.35 34.7585 272.816 36.283C274.281 37.8075 275.013 39.9937 275.013 42.8414V58.5685Z" fill="#383838"/>
<path d="M281.499 28.2145C281.499 26.0715 282.692 25 285.076 25C287.461 25 288.653 26.0715 288.653 28.2145C288.653 29.2356 288.351 30.0338 287.748 30.6091C287.159 31.1701 286.268 31.4505 285.076 31.4505C282.692 31.4505 281.499 30.3718 281.499 28.2145ZM288.351 58.5685H281.779V34.4492H288.351V58.5685Z" fill="#383838"/>
<path d="M317.505 58.5685H310.933V44.481C310.933 42.7407 310.624 41.4391 310.007 40.5761C309.389 39.6988 308.405 39.2602 307.055 39.2602C305.216 39.2602 303.887 39.8786 303.068 41.1155C302.25 42.338 301.84 44.3731 301.84 47.2208V58.5685H295.268V34.4492H300.289L301.172 37.5343H301.539C302.271 36.3693 303.277 35.492 304.555 34.9023C305.848 34.2982 307.313 33.9962 308.951 33.9962C311.752 33.9962 313.878 34.7585 315.329 36.283C316.78 37.7931 317.505 39.9793 317.505 42.8414V58.5685Z" fill="#383838"/>
<path d="M334.248 38.6777C332.854 38.6777 331.763 39.1235 330.973 40.0152C330.182 40.8926 329.73 42.1438 329.615 43.769H338.837C338.809 42.1438 338.385 40.8926 337.566 40.0152C336.747 39.1235 335.641 38.6777 334.248 38.6777ZM335.174 59C331.296 59 328.265 57.9285 326.081 55.7855C323.898 53.6426 322.806 50.6079 322.806 46.6815C322.806 42.64 323.812 39.519 325.823 37.3185C327.848 35.1036 330.642 33.9962 334.205 33.9962C337.609 33.9962 340.26 34.967 342.156 36.9086C344.052 38.8503 345 41.5326 345 44.9556V48.1485H329.464C329.536 50.0182 330.089 51.478 331.123 52.5279C332.158 53.5778 333.609 54.1028 335.476 54.1028C336.927 54.1028 338.299 53.9518 339.592 53.6497C340.884 53.3477 342.235 52.8659 343.642 52.2043V57.2957C342.493 57.871 341.265 58.2953 339.958 58.5685C338.651 58.8562 337.056 59 335.174 59Z" fill="#383838"/>
<path fill-rule="evenodd" clip-rule="evenodd" d="M5.87523 72H14.3104C14.5823 71.3601 14.8537 70.7118 15.1261 70.0612C17.0113 65.5588 18.9432 60.9447 21.373 58.2439C23.4249 55.9632 26.5006 55.4949 29.1977 55.0843C31.8166 54.6856 34.0786 54.3412 34.6996 52.4447C35.8659 48.8832 33.4129 46.9083 31.1719 45.104C30.0935 44.2358 29.0642 43.4071 28.5108 42.4602C26.032 38.2184 16.1559 32.8844 8.99535 38.275C6.65607 40.036 3.27417 44.0969 0 48.4245V66.1956C0 69.4013 2.63043 72 5.87523 72ZM18.3601 48.7822C20.3881 48.7822 22.0322 47.158 22.0322 45.1544C22.0322 43.1509 20.3881 41.5267 18.3601 41.5267C16.3321 41.5267 14.6881 43.1509 14.6881 45.1544C14.6881 47.158 16.3321 48.7822 18.3601 48.7822Z" fill="#F9F9F9"/>
</svg>
